<?xml version="1.0" encoding="iso-8859-1"?>
<!-- Uploaded to: SVG Repo, www.svgrepo.com, Generator: SVG Repo Mixer Tools -->
<svg height="800px" width="800px" version="1.1" id="Layer_1" xmlns="http://www.w3.org/2000/svg" xmlns:xlink="http://www.w3.org/1999/xlink" 
	 viewBox="0 0 496.158 496.158" xml:space="preserve">
<path style="fill:#5B4F3F;" d="M248.082,0.003C111.07,0.003,0,111.063,0,248.085c0,137.001,111.07,248.07,248.082,248.07
	c137.006,0,248.076-111.069,248.076-248.07C496.158,111.062,385.088,0.003,248.082,0.003z"/>
<path style="fill:#99937F;" d="M267.638,42.688H228.52c-5.015,31.094,21.063,92.278,21.063,92.278
	C271.65,103.872,267.638,42.688,267.638,42.688z"/>
<path style="fill:#E2DECF;" d="M305.753,178.765c0,0,22.065,82.247,26.746,89.604l37.447-10.698l-24.742-122.369
	c0,0-12.706-53.495-24.073-60.182c0,0-20.061-14.713-38.784-11.368c-18.723,3.344-50.819,103.312-50.819,103.312
	s13.039,242.732,11.033,284.86c0,0,54.164,5.015,74.224-3.01c0,0-21.063-280.178-17.052-294.22L305.753,178.765z"/>
<path style="fill:#C9C3AD;" d="M267.638,42.688c0,0-13.04,69.208-36.109,124.375c0,0,49.148-31.094,56.169-99.3L267.638,42.688z"/>
<path style="fill:#CCC8B8;" d="M267.136,167.063c0,0-32.097-99.968-50.82-103.312c-18.722-3.345-20.394,89.27-20.394,89.27
	c4.012,14.042-14.043,295.892-14.043,295.892c20.061,8.024,74.224,3.01,74.224,3.01
	C254.096,409.795,267.136,167.063,267.136,167.063z"/>
<path style="fill:#E2DECF;" d="M264.629,167.063c0,0-32.097-99.968-50.819-103.312c-18.722-3.345-38.784,11.368-38.784,11.368
	c-11.367,6.687-24.073,60.182-24.073,60.182L126.211,257.67l37.447,10.698c4.681-7.356,26.747-89.604,26.747-89.604l6.018-24.072
	c4.012,14.042-17.051,294.22-17.051,294.22c20.06,8.024,74.224,3.01,74.224,3.01C251.59,409.795,264.629,167.063,264.629,167.063z"
	/>
<path style="fill:#CCC6B4;" d="M228.52,42.688l-20.061,25.075c7.021,68.206,56.922,99.049,56.922,99.049
	C243.816,112.147,228.52,42.688,228.52,42.688z"/>
<g>
	<path style="fill:#EAE8E4;" d="M192.912,257.837l-4.514,60.683c0,0,5.266,3.26,14.544-2.508
		c10.909-6.781,14.293-53.661,14.293-53.661C206.704,260.344,192.912,257.837,192.912,257.837z"/>
	<path style="fill:#EAE8E4;" d="M303.496,257.837c0,0-13.792,2.507-24.324,4.514c0,0,3.385,46.88,14.293,53.661
		c9.278,5.768,14.544,2.508,14.544,2.508L303.496,257.837z"/>
</g>
<polygon style="fill:#BFB89D;" points="247.091,213.444 244.229,214.855 247.246,214.784 "/>
<g>
	<path style="fill:#EAE8E4;" d="M251.745,219.381c0,0-1.915-1.055-5.937-1.15c-4.022-0.095-5.938,0.384-5.938,0.384
		s-4.126,17.528-3.542,40.699c0.583,23.173-3.448,40.508-3.448,40.508l11.875,7.278c0,0,4.414-27.104,3.265-48.171
		C246.87,237.86,251.745,219.381,251.745,219.381z"/>
	<path style="fill:#EAE8E4;" d="M301.002,211.814c0,0-26.3,3.05-54.324,3.05c-28.025,0-51.948-3.02-51.948-3.02l-0.572,13.727
		c0,0,23.352,3.02,51.377,3.02c28.027,0,56.421-3.242,56.421-3.242L301.002,211.814z"/>
</g>
<g>
	<path style="fill:#E5E1DA;" d="M300.971,214.304c0,0-34.621,3.592-53.726,3.592s-52.563-3.658-52.563-3.658
		s-1.044,1.292-1.188,4.164c-0.144,2.873,0.819,4.694,0.819,4.694s24.204,2.557,51.784,2.413c27.581-0.143,55.594-1.58,55.594-1.58
		s0.664-1.15,0.664-4.598C302.353,215.884,300.971,214.304,300.971,214.304z"/>
	<path style="fill:#E5E1DA;" d="M261.76,212.677c0,0-2.423-0.479-7.51-0.384c-5.086,0.096-7.508,1.15-7.508,1.15
		s5.327,31.218,0,59.374c-5.329,28.154-6.057,61.098-6.057,61.098l15.018-7.278c0,0,0.364-19.345,5.826-53.434
		C266.991,239.114,261.76,212.677,261.76,212.677z"/>
</g>
<path style="fill:#EAE8E4;" d="M260.508,212.677c0,0-1.916-0.479-5.938-0.384c-4.022,0.096-5.938,1.15-5.938,1.15
	s4.213,31.218,0,59.374c-4.212,28.154-4.788,61.098-4.788,61.098l11.874-7.278c0,0,0.288-19.345,4.606-53.434
	C264.643,239.114,260.508,212.677,260.508,212.677z"/>
</svg>