<?xml version="1.0" encoding="iso-8859-1"?>
<!-- Uploaded to: SVG Repo, www.svgrepo.com, Generator: SVG Repo Mixer Tools -->
<!DOCTYPE svg PUBLIC "-//W3C//DTD SVG 1.1//EN" "http://www.w3.org/Graphics/SVG/1.1/DTD/svg11.dtd">
<svg fill="#000000" version="1.1" id="Capa_1" xmlns="http://www.w3.org/2000/svg" xmlns:xlink="http://www.w3.org/1999/xlink" 
	 viewBox="0 0 212.973 212.973" xml:space="preserve">
<g>
	<path d="M167.785,62.488c3.392,0,6.568-0.911,9.322-2.483l6.766,6.766l7.07-7.07l-6.766-6.766c1.572-2.753,2.484-5.931,2.484-9.322
		c0-10.408-8.468-18.875-18.877-18.875c-5.042,0-9.782,1.963-13.348,5.527c-3.566,3.565-5.528,8.307-5.527,13.347
		c-0.001,5.042,1.962,9.783,5.527,13.349C158.003,60.525,162.743,62.488,167.785,62.488z M161.508,37.338
		c1.677-1.677,3.906-2.6,6.277-2.6c4.895,0,8.877,3.981,8.877,8.875c0,4.894-3.982,8.875-8.877,8.875
		c-2.371,0-4.601-0.923-6.277-2.6c-1.676-1.676-2.599-3.903-2.598-6.276C158.909,41.241,159.832,39.014,161.508,37.338z"/>
	<path d="M0,5.701v81.57h212.973V5.701H0z M197.973,72.271H15v-51.57h182.973V72.271z"/>
	<rect x="30.5" y="40.486" width="103.41" height="12"/>
	<rect x="7.5" y="132.272" width="197.973" height="15"/>
	<rect x="7.5" y="102.272" width="98.986" height="15"/>
	<rect x="7.5" y="192.271" width="197.973" height="15"/>
	<rect x="7.5" y="162.272" width="98.986" height="15"/>
</g>
</svg>