<?xml version="1.0" ?>
<!DOCTYPE svg  PUBLIC '-//W3C//DTD SVG 1.1//EN'  'http://www.w3.org/Graphics/SVG/1.1/DTD/svg11.dtd'>
<!-- Uploaded to: SVG Repo, www.svgrepo.com, Generator: SVG Repo Mixer Tools -->
<svg fill="#000000" width="800px" height="800px" style="fill-rule:evenodd;clip-rule:evenodd;stroke-linejoin:round;stroke-miterlimit:2;" version="1.1" xml:space="preserve" xmlns="http://www.w3.org/2000/svg" xmlns:serif="http://www.serif.com/" xmlns:xlink="http://www.w3.org/1999/xlink">
<g id="Icon">
<path d="M4,7l-0.988,0c-0.552,0 -1,0.448 -1,1c0,0.552 0.448,1 1,1l0.988,0l0,2l-0.988,0c-0.552,-0 -1,0.448 -1,1c0,0.552 0.448,1 1,1l0.988,0l0,2l-0.988,0c-0.552,0 -1,0.448 -1,1c0,0.552 0.448,1 1,1l0.988,0l0,2l-0.988,0c-0.552,0 -1,0.448 -1,1c0,0.552 0.448,1 1,1l0.988,0l0,2l-0.988,0c-0.552,0 -1,0.448 -1,1c0,0.552 0.448,1 1,1l0.988,0l0,4.017c0,0.553 0.448,1 1,1l22,0c0.796,0 1.559,-0.316 2.121,-0.878c0.563,-0.563 0.879,-1.326 0.879,-2.122c-0,-4.845 -0,-17.171 -0,-22.017c-0,-0.796 -0.316,-1.559 -0.879,-2.121c-0.562,-0.563 -1.325,-0.879 -2.121,-0.879c-5.764,-0 -22,-0 -22,-0c-0.552,-0 -1,0.448 -1,1l0,4Zm8,-3l15,-0c0.265,-0 0.52,0.105 0.707,0.293c0.188,0.187 0.293,0.442 0.293,0.707l0,22.017c-0,0.266 -0.105,0.52 -0.293,0.707c-0.187,0.188 -0.442,0.293 -0.707,0.293l-15,0l-0,-24.017Zm-6,0l-0,3l0.988,0c0.552,0 1,0.448 1,1c-0,0.552 -0.448,1 -1,1l-0.988,0l-0,2l0.988,0c0.552,-0 1,0.448 1,1c-0,0.552 -0.448,1 -1,1l-0.988,0l-0,2l0.988,0c0.552,0 1,0.448 1,1c-0,0.552 -0.448,1 -1,1l-0.988,0l-0,2l0.988,0c0.552,0 1,0.448 1,1c-0,0.552 -0.448,1 -1,1l-0.988,0l-0,2l0.988,0c0.552,0 1,0.448 1,1c-0,0.552 -0.448,1 -1,1l-0.988,0l-0,3.017l4,0l-0,-24.017l-4,0Z"/>
<path d="M26,17.509c0,-0.796 -0.316,-1.559 -0.879,-2.122c-0.562,-0.562 -1.325,-0.878 -2.121,-0.878c-1.743,-0 -4.257,-0 -6,-0c-0.796,-0 -1.559,0.316 -2.121,0.878c-0.563,0.563 -0.879,1.326 -0.879,2.122c-0,2.651 -0,7 -0,7c-0,0.552 0.448,1 1,1l10,-0c0.552,-0 1,-0.448 1,-1l-0,-7Zm-2,-0l-0,6c0,-0 -8,-0 -8,-0c-0,-0 -0,-6 -0,-6c-0,-0.266 0.105,-0.52 0.293,-0.707c0.187,-0.188 0.442,-0.293 0.707,-0.293l6,-0c0.265,-0 0.52,0.105 0.707,0.293c0.188,0.187 0.293,0.441 0.293,0.707Z"/>
<path d="M20,6.509c-1.656,-0 -3,1.344 -3,3c-0,1.655 1.344,3 3,3c1.656,-0 3,-1.345 3,-3c-0,-1.656 -1.344,-3 -3,-3Zm-0,2c0.552,-0 1,0.448 1,1c-0,0.552 -0.448,1 -1,1c-0.552,-0 -1,-0.448 -1,-1c-0,-0.552 0.448,-1 1,-1Z"/>
</g>
</svg>