<?xml version="1.0" encoding="utf-8"?>
<!-- Uploaded to: SVG Repo, www.svgrepo.com, Generator: SVG Repo Mixer Tools -->
<svg width="800px" height="800px" viewBox="0 0 24 24" xmlns="http://www.w3.org/2000/svg">
<defs>
<style>.cls-1{fill:none;stroke:#000000;stroke-linecap:round;stroke-linejoin:round;stroke-width:1.5px;}</style>
</defs>
<g id="ic-ecommerce-delivery">
<g id="Vrstva_535" data-name="Vrstva 535">
<path class="cls-1" d="M4.79,18H4a2,2,0,0,1-2-2V6.49a2,2,0,0,1,2-2h9.78a2,2,0,0,1,2,2V13.4"/>
<path class="cls-1" d="M15.75,8.19h2.78a1.18,1.18,0,0,1,.93.45l2.26,3a1.81,1.81,0,0,1,.36,1.07v5a.2.2,0,0,1-.2.2H18.83"/>
<circle class="cls-1" cx="16.51" cy="17.82" r="2.24"/>
<circle class="cls-1" cx="7.02" cy="17.82" r="2.24"/>
<line class="cls-1" x1="14.28" y1="17.95" x2="9.15" y2="17.95"/>
</g>
</g>
</svg>