<?xml version="1.0" encoding="UTF-8" standalone="no"?>
<!-- Uploaded to: SVG Repo, www.svgrepo.com, Generator: SVG Repo Mixer Tools -->
<svg 
   viewBox="0 0 600 600"
   version="1.1"
   id="svg9724"
   sodipodi:docname="email-close.svg"
   inkscape:version="1.2.2 (1:1.2.2+202212051550+b0a8486541)"
   width="600"
   height="600"
   xmlns:inkscape="http://www.inkscape.org/namespaces/inkscape"
   xmlns:sodipodi="http://sodipodi.sourceforge.net/DTD/sodipodi-0.dtd"
   xmlns="http://www.w3.org/2000/svg"
   xmlns:svg="http://www.w3.org/2000/svg">
  <defs
     id="defs9728" />
  <sodipodi:namedview
     id="namedview9726"
     pagecolor="#ffffff"
     bordercolor="#666666"
     borderopacity="1.0"
     inkscape:showpageshadow="2"
     inkscape:pageopacity="0.0"
     inkscape:pagecheckerboard="0"
     inkscape:deskcolor="#d1d1d1"
     showgrid="true"
     inkscape:zoom="0.59480855"
     inkscape:cx="617.84586"
     inkscape:cy="313.54627"
     inkscape:window-width="1920"
     inkscape:window-height="1009"
     inkscape:window-x="0"
     inkscape:window-y="1080"
     inkscape:window-maximized="1"
     inkscape:current-layer="g10449"
     showguides="true">
    <inkscape:grid
       type="xygrid"
       id="grid9972"
       originx="0"
       originy="0" />
    <sodipodi:guide
       position="300,520"
       orientation="1,0"
       id="guide385"
       inkscape:locked="false" />
  </sodipodi:namedview>
  
  <g
     id="g10449"
     transform="matrix(0.95173205,0,0,0.95115787,13.901174,12.168794)"
     style="stroke-width:1.05103">
    <g
       id="path10026"
       inkscape:transform-center-x="-0.59233046"
       inkscape:transform-center-y="-20.347403"
       transform="matrix(1.3807551,0,0,1.2700888,273.60014,263.99768)" />
    <g
       id="g11314"
       transform="matrix(1.5092301,0,0,1.3955555,36.774048,-9.4503933)"
       style="stroke-width:50.6951" />
    <path
       style="color:#000000;fill:#000000;stroke-linecap:round;stroke-linejoin:round;-inkscape-stroke:none;paint-order:stroke fill markers"
       d="m 132.50586,39.773437 c -80.786884,0 -147.111329,66.380993 -147.111329,147.175783 v 231.32422 c 0,80.79479 66.324445,147.17578 147.111329,147.17578 h 336.20508 c 80.78688,0 147.11328,-66.38099 147.11328,-147.17578 V 186.94922 c 0,-80.79479 -66.3264,-147.175783 -147.11328,-147.175783 z m 0,84.082033 h 336.20508 c 35.63231,0 63.02929,27.39904 63.02929,63.09375 v 231.32422 c 0,35.69471 -27.39698,63.09375 -63.02929,63.09375 H 132.50586 c -35.63231,0 -63.029298,-27.39904 -63.029298,-63.09375 V 186.94922 c 0,-35.69471 27.396988,-63.09375 63.029298,-63.09375 z"
       id="rect240" />
    <path
       style="color:#000000;fill:#000000;stroke-linecap:round;stroke-linejoin:round;-inkscape-stroke:none"
       d="M 67.464844,81.886719 A 42.041302,42.041302 0 0 0 38.351562,95.591797 42.041302,42.041302 0 0 0 41.162109,154.98047 L 272.31836,365.25195 a 42.045506,42.045506 0 0 0 56.58008,0 L 560.05469,154.98047 a 42.041302,42.041302 0 0 0 2.81054,-59.388673 42.041302,42.041302 0 0 0 -59.38867,-2.808594 L 300.60937,277.31836 97.740234,92.783203 A 42.041302,42.041302 0 0 0 67.464844,81.886719 Z"
       id="path404" />
    <g
       id="g1810"
       transform="translate(-0.51901729)">
      <path
         style="color:#000000;fill:#000000;-inkscape-stroke:none"
         d="m 418.54102,322.93555 -45.69727,43.45898 130.79492,137.53125 45.69727,-43.45898 z"
         id="path1686" />
      <path
         style="color:#000000;fill:#000000;-inkscape-stroke:none"
         d="M 183.54297,323.11719 52.748047,462.84961 98.787109,505.94531 229.58203,366.21289 Z"
         id="path1686-3" />
    </g>
  </g>
</svg>