<?xml version="1.0" encoding="utf-8"?><!-- Uploaded to: SVG Repo, www.svgrepo.com, Generator: SVG Repo Mixer Tools -->
<svg fill="#000000" width="800px" height="800px" viewBox="0 0 24 24" id="sign-in-4" xmlns="http://www.w3.org/2000/svg" class="icon line"><path id="primary" d="M21,12H12m-4.62.69,3.12,2.14a1,1,0,0,0,1.5-.69V9.86a1,1,0,0,0-1.5-.69L7.38,11.31A.82.82,0,0,0,7.38,12.69ZM16,16v3a1,1,0,0,1-1,1H4a1,1,0,0,1-1-1V5A1,1,0,0,1,4,4H15a1,1,0,0,1,1,1V8" style="fill: none; stroke: rgb(0, 0, 0); stroke-linecap: round; stroke-linejoin: round; stroke-width: 1.5;"></path></svg>